# AST/ASF file generated using VICON BodyLanguage
# -----------------------------------------------
:version 1.10
:name VICON
:units
  mass 1.0
  length 0.45
  angle deg
:documentation
   .ast/.asf automatically generated from VICON data using
   VICON BodyBuilder and BodyLanguage model FoxedUp or BRILLIANT.MOD
:root
   order TX TY TZ RX RY RZ
   axis XYZ
   position 0 0 0  
   orientation 0 0 0 
:bonedata
  begin
     id 1 
     name lhipjoint
     direction 0.621036 -0.695554 0.361275 
     length 2.46325 
     axis 0 0 0  XYZ
  end
  begin
     id 2 
     name lfemur
     direction 0.34202 -0.939693 0  
     length 6.54784  
     axis 0 0 20  XYZ
    dof rx ry rz
    limits (-160.0 20.0)
           (-70.0 70.0)
           (-60.0 70.0)
  end
  begin
     id 3 
     name ltibia
     direction 0.34202 -0.939693 0   
     length 7.84737   
     axis 0 0 20   XYZ
    dof rx
    limits (-10.0 170.0)
  end
  begin
     id 4 
     name lfoot
     direction 0.0790693 -0.217241 0.97291   
     length 2.59747   
     axis -90 7.62852e-016 20   XYZ
    dof rx rz
    limits (-45.0 90.0)
           (-70.0 20.0)
  end
  begin
     id 5 
     name ltoes
     direction 1.53572e-011 -4.21898e-011 1   
     length 1.29919   
     axis -90 7.62852e-016 20   XYZ
    dof rx
    limits (-90.0 20.0)
  end
  begin
     id 6 
     name rhipjoint
     direction -0.602353 -0.708375 0.367935   
     length 2.41867  
     axis 0 0 0  XYZ 
  end
  begin
     id 7 
     name rfemur
     direction -0.34202 -0.939693 0   
     length 6.92065   
     axis 0 0 -20   XYZ
    dof rx ry rz
    limits (-160.0 20.0)
           (-70.0 70.0)
           (-70.0 60.0)
  end
  begin
     id 8 
     name rtibia
     direction -0.34202 -0.939693 0   
     length 7.88883   
     axis 0 0 -20   XYZ
    dof rx
    limits (-10.0 170.0)
 end
 begin
     id 9 
     name rfoot
     direction -0.0768692 -0.211196 0.974416   
     length 2.43714  
     axis -90 -7.62852e-016 -20   XYZ
    dof rx rz
    limits (-45.0 90.0)
           (-20.0 70.0)
  end
  begin
     id 10 
     name rtoes
     direction -1.53575e-011 -4.21933e-011 1   
     length 1.22113   
     axis -90 -7.62852e-016 -20   XYZ
    dof rx
    limits (-90.0 20.0)
  end
  begin
     id 11 
     name lowerback
     direction 0.0197937 0.98943 -0.143655   
     length 2.16931   
     axis 0 0 0   XYZ
    dof rx ry rz
    limits (-20.0 45.0)
           (-30.0 30.0)
           (-30.0 30.0)
  end
  begin
     id 12 
     name upperback
     direction -0.00183968 0.999975 0.00684288   
     length 2.17221   
     axis 0 0 0   XYZ
    dof rx ry rz
    limits (-20.0 45.0)
           (-30.0 30.0)
           (-30.0 30.0)
  end
  begin
     id 13 
     name thorax
     direction -0.00950244 0.997208 0.0740685   
     length 2.22549   
     axis 0 0 0   XYZ
    dof rx ry rz
    limits (-20.0 45.0)
           (-30.0 30.0)
           (-30.0 30.0)
  end
  begin
     id 14 
     name lowerneck
     direction 0.0218238 0.996215 0.0841425   
     length 1.77269   
     axis 0 0 0   XYZ
    dof rx ry rz
    limits (-20.0 45.0)
           (-30.0 30.0)
           (-30.0 30.0)
  end
  begin
     id 15 
     name upperneck
     direction -0.00430652 0.994214 -0.107332   
     length 1.76534   
     axis 0 0 0   XYZ
    dof rx ry rz
    limits (-20.0 45.0)
           (-30.0 30.0)
           (-30.0 30.0)
  end
  begin
     id 16
     name head
     direction -0.00328946 0.998959 -0.0454998  
     length 1.82634  
     axis 0 0 0   XYZ
    dof rx ry rz
    limits (-20.0 45.0)
           (-30.0 30.0)
           (-30.0 30.0)
  end
  begin
     id 17 
     name lclavicle
     direction 0.970962 0.239191 0.00450212  
     length 3.84872  
     axis 0 0 0   XYZ
    dof ry rz
    limits (-20.0 10.0)
           (0.0 20.0)
  end
  begin
     id 18 
     name lhumerus
     direction 1 -4.48966e-011 5.74696e-028   
     length 5.22771   
     axis 180 -30 -90   XYZ
    dof rx ry rz
    limits (-60.0 90.0)
           (-90.0 90.0)
           (-90.0 90.0)
  end
  begin
     id 19
     name lradius
     direction 1 -4.4896e-011 4.25109e-027   
     length 3.45251   
     axis 180 -30 -90   XYZ
    dof rx
    limits (-10.0 170.0)
  end
  begin
     id 20
     name lwrist
     direction 1 -4.48971e-011 1.15382e-027   
     length 1.72626   
     axis -5.52449e-016 90 90   XYZ
    dof ry
    limits (-180.0 0.0)
 end
  begin
     id 21 
     name lhand
     direction 1 -4.49034e-011 2.30765e-027   
     length 0.552119   
     axis -1.47248e-015 90 90   XYZ
    dof rx rz
    limits (-90.0 90.0)
           (-45.0 45.0)
  end
  begin
     id 22 
     name lfingers
     direction 1 -4.48951e-011 4.61529e-027   
     length 0.445133   
     axis -2.94495e-015 90 90   XYZ
    dof rx
    limits (0.0 90.0)
  end
  begin
     id 23
     name lthumb
     direction 0.707107 -6.34991e-011 0.707107   
     length 0.639124   
     axis -90 45 2.85299e-015   XYZ
    dof rx rz
    limits (-45.0 45.0)
           (-45.0 45.0)
  end
  begin
     id 24 
     name rclavicle
     direction -0.97424 0.222511 -0.0366699   
     length 3.73439  
     axis 0 0 0   XYZ 
    dof ry rz
    limits (-10.0 20.0)
           (-20.0 0.0)
  end
  begin
     id 25 
     name rhumerus
     direction -1 -4.48956e-011 -4.97258e-028  
     length 5.2398   
     axis 180 30 90   XYZ
    dof rx ry rz
    limits (-90.0 60.0)
           (-90.0 90.0)
           (-90.0 90.0)
  end
  begin
     id 26 
     name rradius
     direction -1 -4.4897e-011 -1.72611e-027   
     length 3.48042   
     axis 180 30 90   XYZ
    dof rx
    limits (-10.0 170.0)
  end
  begin
     id 27 
     name rwrist
     direction -1 -4.48976e-011 1.15382e-027   
     length 1.74021   
     axis -5.52449e-016 -90 -90   XYZ
    dof ry
    limits (-180.0 0.0)
  end
  begin
     id 28
     name rhand
     direction -1 -4.48963e-011 2.30765e-027   
     length 0.618713   
     axis -1.47248e-015 -90 -90   XYZ
    dof rx rz
    limits (-90.0 90.0)
           (-45.0 45.0)
  end
  begin
     id 29
     name rfingers
     direction -1 -4.4888e-011 4.61529e-027   
     length 0.498823   
     axis -2.94495e-015 -90 -90   XYZ
    dof rx
    limits (0.0 90.0)
  end
  begin
     id 30
     name rthumb
     direction -0.707107 -6.34968e-011 0.707107   
     length 0.716213   
     axis -90 -45 -2.85299e-015   XYZ
    dof rx rz
    limits (-45.0 45.0)
           (-45.0 45.0)
  end
:hierarchy
  begin
    root lhipjoint rhipjoint lowerback
    lhipjoint lfemur
    lfemur ltibia
    ltibia lfoot
    lfoot ltoes
    rhipjoint rfemur
    rfemur rtibia
    rtibia rfoot
    rfoot rtoes
    lowerback upperback
    upperback thorax
    thorax lowerneck lclavicle rclavicle
    lowerneck upperneck
    upperneck head
    lclavicle lhumerus
    lhumerus lradius
    lradius lwrist
    lwrist lhand lthumb
    lhand lfingers
    rclavicle rhumerus
    rhumerus rradius
    rradius rwrist
    rwrist rhand rthumb
    rhand rfingers
  end

#!OML:ASF G:\JayActor3\Patient Classification 1\Patient 1\Session 5\male.ASF
:FULLY-SPECIFIED
:DEGREES
1
root -38.5716 16.9497 -5.15257 -135.37 84.844 -132.861
lowerback 0.630089 -0.901273 3.61357
upperback 4.04937 -1.1973 0.0870298
thorax 3.7467 -0.449451 -1.96269
lowerneck -7.96892 -1.5858 0.741364
upperneck 10.7248 -2.50523 2.83611
head 4.54961 -1.00521 0.598044
rclavicle 7.95139e-016 -1.19271e-015
rhumerus -31.3236 -6.03956 -86.9878
rradius 27.2252
rwrist 2.95625
rhand -18.9863 -10.9989
rfingers 7.12502
rthumb 7.31835 -40.8523
lclavicle 7.95139e-016 -1.19271e-015
lhumerus -29.4496 6.12508 85.0988
lradius 23.5107
lwrist 16.3003
lhand -19.564 23.8126
lfingers 7.12502
lthumb 6.76075 53.6846
rfemur -8.76731 2.83801 24.784
rtibia 36.1552
rfoot -26.317 -14.333
rtoes 8.76865
lfemur -0.468093 4.6907 -16.5749
ltibia 22.7419
lfoot -19.6391 3.96879
ltoes -2.43262
2
root -38.5718 16.9495 -5.15471 -135.182 84.8583 -132.654
lowerback 0.506893 -0.892738 3.5468
upperback 4.14144 -1.19139 0.131493
thorax 3.91459 -0.444374 -1.88219
lowerneck -7.92923 -1.5694 0.648556
upperneck 10.5967 -2.47473 2.88937
head 4.50503 -0.993838 0.632024
rclavicle -3.10601e-015 7.95139e-015
rhumerus -31.2651 -6.06186 -86.9065
rradius 27.2648
rwrist 2.99885
rhand -18.9415 -11.0852
rfingers 7.12502
rthumb 7.36157 -40.9371
lclavicle -3.10601e-015 7.95139e-015
lhumerus -29.3291 6.14376 85.1839
lradius 23.5072
lwrist 16.3094
lhand -19.6225 23.7851
lfingers 7.12502
lthumb 6.70422 53.659
rfemur -8.75984 2.71204 24.7534
rtibia 36.1653
rfoot -26.2931 -14.2107
rtoes 8.74425
lfemur -0.446543 4.71463 -16.5752
ltibia 22.7652
lfoot -19.6387 3.95159
ltoes -2.44093
3
root -38.5722 16.9489 -5.15622 -134.581 84.8834 -132.064
lowerback 0.500656 -0.882477 3.56453
upperback 4.14295 -1.17818 0.12672
thorax 3.92013 -0.43698 -1.89681
lowerneck -7.9902 -1.57094 0.714769
upperneck 10.6544 -2.47621 2.78696
head 4.53084 -0.996704 0.589049
rclavicle -7.20594e-016 9.93923e-015
rhumerus -31.1664 -6.05971 -86.899
rradius 27.1792
rwrist 2.99247
rhand -19.0656 -10.8572
rfingers 7.12502
rthumb 7.24183 -40.7133
lclavicle -7.20594e-016 9.93923e-015
lhumerus -29.3191 6.18332 85.1568
lradius 23.4944
lwrist 16.2492
lhand -19.6156 23.8859
lfingers 7.12502
lthumb 6.71092 53.7595
rfemur -8.77508 2.75006 24.7666
rtibia 36.1624
rfoot -26.2676 -14.1735
rtoes 8.74324
lfemur -0.451588 4.7576 -16.5626
ltibia 22.7483
lfoot -19.5883 4.00181
ltoes -2.60655
4
root -38.5695 16.9488 -5.15819 -134.681 84.8934 -132.142
lowerback 0.521783 -0.883934 3.57645
upperback 4.11955 -1.17871 0.0971181
thorax 3.88299 -0.437584 -1.93351
lowerneck -7.94266 -1.57045 0.725415
upperneck 10.6572 -2.47715 2.80162
head 4.52382 -0.995944 0.592146
rclavicle -6.41081e-015 -4.77083e-015
rhumerus -31.3015 -6.10984 -86.8999
rradius 27.2678
rwrist 3.00025
rhand -19.3122 -10.5
rfingers 7.12502
rthumb 7.00377 -40.3641
lclavicle -6.41081e-015 -4.77083e-015
lhumerus -29.3745 6.1511 85.1109
lradius 23.4711
lwrist 16.2903
lhand -19.6096 23.633
lfingers 7.12502
lthumb 6.71674 53.5065
rfemur -8.7357 2.74211 24.7447
rtibia 36.1608
rfoot -26.2793 -14.1778
rtoes 8.71653
lfemur -0.406486 4.77088 -16.5776
ltibia 22.737
lfoot -19.5365 4.00214
ltoes -2.86692
5
root -38.568 16.9486 -5.16017 -134.481 84.9059 -131.933
lowerback 0.511712 -0.880793 3.58534
upperback 4.11815 -1.17492 0.0863963
thorax 3.88712 -0.435201 -1.94961
lowerneck -7.93558 -1.56878 0.742165
upperneck 10.6699 -2.47443 2.77889
head 4.52601 -0.9951 0.582625
rclavicle 1.16786e-015 -2.78299e-015
rhumerus -31.328 -6.13153 -86.8897
rradius 27.2844
rwrist 3.00624
rhand -19.5653 -10.1228
rfingers 7.12502
rthumb 6.75942 -39.9949
lclavicle 1.16786e-015 -2.78299e-015
lhumerus -29.383 6.20117 85.0611
lradius 23.4097
lwrist 16.2863
lhand -19.5856 23.2384
lfingers 7.12502
lthumb 6.73989 53.1111
rfemur -8.7179 2.72677 24.7357
rtibia 36.1548
rfoot -26.2655 -14.15
rtoes 8.68885
lfemur -0.376438 4.80343 -16.5761
ltibia 22.7198
lfoot -19.4919 4.00702
ltoes -3.04059
6
root -38.5663 16.9484 -5.16214 -134.286 84.9158 -131.732
lowerback 0.507182 -0.879236 3.60022
upperback 4.11057 -1.17304 0.0728274
thorax 3.88143 -0.433845 -1.97192
lowerneck -7.93331 -1.56642 0.759374
upperneck 10.6919 -2.47156 2.76028
head 4.53191 -0.993675 0.574247
rclavicle -2.26118e-015 -1.59028e-015
rhumerus -31.3579 -6.1433 -86.8878
rradius 27.3031
rwrist 3.00811
rhand -19.8365 -9.72491
rfingers 7.12502
rthumb 6.49767 -39.6052
lclavicle -2.26118e-015 -1.59028e-015
lhumerus -29.398 6.24317 85.0104
lradius 23.3591
lwrist 16.283
lhand -19.5618 22.8982
lfingers 7.12502
lthumb 6.7628 52.7702
rfemur -8.7023 2.71714 24.7294
rtibia 36.1487
rfoot -26.2508 -14.1298
rtoes 8.65741
lfemur -0.347808 4.83927 -16.572
ltibia 22.7
lfoot -19.4434 4.00707
ltoes -3.22432
7
root -38.5647 16.9483 -5.16411 -134.073 84.9244 -131.515
lowerback 0.494448 -0.87761 3.61427
upperback 4.10643 -1.1715 0.0619438
thorax 3.88402 -0.432513 -1.99117
lowerneck -7.93081 -1.56235 0.766934
upperneck 10.7085 -2.46633 2.75265
head 4.53634 -0.990924 0.570979
rclavicle 1.46604e-015 -6.75868e-015
rhumerus -31.3822 -6.14357 -86.8885
rradius 27.327
rwrist 3.00656
rhand -20.0688 -9.38842
rfingers 7.12502
rthumb 6.27341 -39.2755
lclavicle 1.46604e-015 -6.75868e-015
lhumerus -29.403 6.30844 84.9525
lradius 23.2875
lwrist 16.2785
lhand -19.529 22.4254
lfingers 7.12502
lthumb 6.79454 52.2964
rfemur -8.68986 2.70678 24.7248
rtibia 36.142
rfoot -26.2372 -14.1071
rtoes 8.63864
lfemur -0.327624 4.87597 -16.5654
ltibia 22.6926
lfoot -19.4017 4.00153
ltoes -3.3971
8
root -38.5635 16.9483 -5.16597 -133.81 84.9333 -131.253
lowerback 0.469116 -0.876252 3.6222
upperback 4.10977 -1.17096 0.0575991
thorax 3.90169 -0.431553 -2.00054
lowerneck -7.94368 -1.55569 0.765853
upperneck 10.7261 -2.45731 2.74769
head 4.54375 -0.986422 0.570047
rclavicle 2.55687e-014 -1.19271e-014
rhumerus -31.3821 -6.12105 -86.8909
rradius 27.3484
rwrist 2.99697
rhand -20.2336 -9.15215
rfingers 7.12502
rthumb 6.11425 -39.0439
lclavicle 2.55687e-014 -1.19271e-014
lhumerus -29.3912 6.37999 84.9066
lradius 23.2253
lwrist 16.2694
lhand -19.5 22.0189
lfingers 7.12502
lthumb 6.82247 51.889
rfemur -8.68726 2.70059 24.7233
rtibia 36.1348
rfoot -26.2167 -14.0869
rtoes 8.616
lfemur -0.319984 4.91867 -16.5555
ltibia 22.6917
lfoot -19.3628 3.99222
ltoes -3.56368
9
root -38.5628 16.9483 -5.16767 -133.465 84.94 -130.915
lowerback 0.441049 -0.873557 3.63303
upperback 4.11333 -1.16891 0.0561612
thorax 3.92126 -0.429746 -2.00855
lowerneck -7.94633 -1.54689 0.752161
upperneck 10.7301 -2.44547 2.76154
head 4.54563 -0.980229 0.577241
rclavicle -1.49089e-015 3.97569e-015
rhumerus -31.3798 -6.08776 -86.8969
rradius 27.3759
rwrist 2.98124
rhand -20.3218 -9.03087
rfingers 7.12502
rthumb 6.02917 -38.9251
lclavicle -1.49089e-015 3.97569e-015
lhumerus -29.3781 6.40137 84.891
lradius 23.2101
lwrist 16.2689
lhand -19.5013 21.8989
lfingers 7.12502
lthumb 6.82123 51.769
rfemur -8.69021 2.70486 24.7306
rtibia 36.1263
rfoot -26.1999 -14.0691
rtoes 8.6094
lfemur -0.323549 4.95724 -16.5395
ltibia 22.6995
lfoot -19.325 3.9878
ltoes -3.73414
10
root -38.5626 16.9484 -5.16911 -133.084 84.9443 -130.543
lowerback 0.403003 -0.870407 3.63657
upperback 4.1236 -1.16675 0.0616049
thorax 3.95372 -0.427864 -2.00559
lowerneck -7.94996 -1.53792 0.735607
upperneck 10.7258 -2.43263 2.77241
head 4.5451 -0.97403 0.584063
rclavicle 2.23633e-015 3.18055e-015
rhumerus -31.3635 -6.04365 -86.9006
rradius 27.405
rwrist 2.95892
rhand -20.3191 -9.03634
rfingers 7.12502
rthumb 6.03176 -38.9305
lclavicle 2.23633e-015 3.18055e-015
lhumerus -29.3501 6.4299 84.8837
lradius 23.1941
lwrist 16.2678
lhand -19.4987 21.7754
lfingers 7.12502
lthumb 6.82376 51.6454
rfemur -8.6983 2.7186 24.7446
rtibia 36.1171
rfoot -26.1839 -14.0599
rtoes 8.60769
lfemur -0.337408 4.99258 -16.5193
ltibia 22.7142
lfoot -19.286 3.98577
ltoes -3.90734
11
root -38.5629 16.9485 -5.17044 -132.64 84.9444 -130.107
lowerback 0.373925 -0.868342 3.64428
upperback 4.13178 -1.16577 0.0700822
thorax 3.97885 -0.42664 -2.00169
lowerneck -7.95224 -1.52772 0.71677
upperneck 10.7209 -2.41802 2.78521
head 4.54417 -0.966962 0.59197
rclavicle 1.04362e-015 1.19271e-015
rhumerus -31.3504 -5.99014 -86.9065
rradius 27.4377
rwrist 2.92845
rhand -20.3158 -9.04397
rfingers 7.12502
rthumb 6.03492 -38.938
lclavicle 1.04362e-015 1.19271e-015
lhumerus -29.3252 6.44073 84.8888
lradius 23.2027
lwrist 16.272
lhand -19.5081 21.7854
lfingers 7.12502
lthumb 6.81467 51.6557
rfemur -8.70609 2.73708 24.7675
rtibia 36.1067
rfoot -26.1709 -14.0534
rtoes 8.6109
lfemur -0.355276 5.02296 -16.4925
ltibia 22.734
lfoot -19.2474 3.99028
ltoes -4.08094
12
root -38.5635 16.9485 -5.1717 -132.239 84.9453 -129.71
lowerback 0.355269 -0.865997 3.64929
upperback 4.13611 -1.16383 0.0766811
thorax 3.99412 -0.425263 -1.99797
lowerneck -7.93804 -1.52001 0.699552
upperneck 10.7052 -2.40643 2.7986
head 4.5372 -0.961576 0.599756
rclavicle -5.76476e-015 1.78906e-014
rhumerus -31.3463 -5.94265 -86.9117
rradius 27.4721
rwrist 2.89729
rhand -20.3062 -9.0609
rfingers 7.12502
rthumb 6.04423 -38.9547
lclavicle -5.76476e-015 1.78906e-014
lhumerus -29.3073 6.42595 84.9048
lradius 23.2316
lwrist 16.2817
lhand -19.5313 21.901
lfingers 7.12502
lthumb 6.79225 51.772
rfemur -8.71056 2.75473 24.7876
rtibia 36.0963
rfoot -26.1595 -14.0492
rtoes 8.61315
lfemur -0.372705 5.04261 -16.4708
ltibia 22.7561
lfoot -19.205 4.00402
ltoes -4.26267
13
root -38.5643 16.9484 -5.173 -131.834 84.9469 -129.303
lowerback 0.349403 -0.863352 3.65562
upperback 4.1382 -1.16088 0.0827091
thorax 3.99983 -0.423527 -1.99533
lowerneck -7.92246 -1.5153 0.688705
upperneck 10.6911 -2.39867 2.80328
head 4.53037 -0.958321 0.603592
rclavicle -1.23246e-014 7.95139e-015
rhumerus -31.3482 -5.89822 -86.9158
rradius 27.5067
rwrist 2.862
rhand -20.2936 -9.07449
rfingers 7.12502
rthumb 6.05641 -38.9679
lclavicle -1.23246e-014 7.95139e-015
lhumerus -29.2898 6.4461 84.901
lradius 23.2256
lwrist 16.2897
lhand -19.5299 21.7897
lfingers 7.12502
lthumb 6.7936 51.6607
rfemur -8.70971 2.77125 24.8072
rtibia 36.087
rfoot -26.1536 -14.0394
rtoes 8.62988
lfemur -0.38337 5.05489 -16.4508
ltibia 22.7772
lfoot -19.1643 4.02554
ltoes -4.42624
14
root -38.5653 16.9484 -5.17439 -131.5 84.951 -128.963
lowerback 0.357432 -0.86139 3.6592
upperback 4.1377 -1.15802 0.0857276
thorax 3.99495 -0.422119 -1.99399
lowerneck -7.9138 -1.51245 0.683963
upperneck 10.6826 -2.39383 2.80242
head 4.52628 -0.956437 0.604481
rclavicle -1.73937e-016 -2.78299e-015
rhumerus -31.3558 -5.85683 -86.9201
rradius 27.5443
rwrist 2.8249
rhand -20.2783 -9.10045
rfingers 7.12502
rthumb 6.07115 -38.9935
lclavicle -1.73937e-016 -2.78299e-015
lhumerus -29.2765 6.44169 84.9087
lradius 23.2447
lwrist 16.301
lhand -19.5363 21.8161
lfingers 7.12502
lthumb 6.7875 51.6873
rfemur -8.70618 2.78025 24.8191
rtibia 36.0802
rfoot -26.149 -14.0247
rtoes 8.65352
lfemur -0.384969 5.05925 -16.4382
ltibia 22.794
lfoot -19.1252 4.04521
ltoes -4.56598
